#!OML:ASF F:\VICON\USERDATA\INSTALL\rory3\rory3.ASF
:FULLY-SPECIFIED
:DEGREES
244
root 0.361547 17.7655 7.4706 -184.767 5.91664 -181.329
lowerback 26.9733 -2.19857 -2.9936
upperback 6.56365 -1.60691 4.81316
thorax -7.3239 -0.0582419 7.55736
lowerneck -9.91507 4.71391 2.04831
upperneck 11.7071 8.47785 -12.8319
head 5.83748 3.59546 -3.65451
rclavicle -3.97569e-015 -5.56597e-014
rhumerus -40.0922 -33.3491 -54.7572
rradius 123.038
rwrist -37.132
rhand 8.41351 -0.592776
rfingers 7.12502
rthumb 33.6201 -27.4601
lclavicle -3.97569e-015 -5.56597e-014
lhumerus -45.4599 11.4893 76.0142
lradius 47.054
lwrist 14.2495
lhand -14.6919 50.1569
lfingers 7.12502
lthumb 11.4619 79.8236
rfemur -19.3367 6.81188 16.9445
rtibia 42.6169
rfoot -14.6725 -5.73636
rtoes 3.83232
lfemur -15.5525 -9.24367 -20.0792
ltibia 36.7202
lfoot -12.1487 -0.533217
ltoes -12.7766
245
root 0.40142 17.7795 7.44308 -184.853 6.23172 -181.099
lowerback 26.8847 -1.95335 -2.85071
upperback 6.61919 -1.25815 4.7535
thorax -7.2782 0.104333 7.28697
lowerneck -9.87133 4.84285 2.19665
upperneck 11.9005 8.70028 -12.9727
head 5.92078 3.70068 -3.70314
rclavicle -4.6118e-014 3.18055e-014
rhumerus -38.2225 -32.56 -56.5359
rradius 124.832
rwrist -35.1873
rhand 9.14004 -0.632149
rfingers 7.12502
rthumb 34.3102 -27.3465
lclavicle -4.6118e-014 3.18055e-014
lhumerus -45.4039 11.5081 76.019
lradius 46.9146
lwrist 13.9418
lhand -14.6291 49.8942
lfingers 7.12502
lthumb 11.5225 79.5575
rfemur -18.9967 7.12474 17.3869
rtibia 42.3887
rfoot -14.7618 -5.74925
rtoes 5.32001
lfemur -15.206 -9.22776 -19.7325
ltibia 36.5909
lfoot -12.2303 -0.250512
ltoes -12.8466
246
root 0.461267 17.785 7.46326 -184.582 5.09226 -180.954
lowerback 26.8113 -2.14435 -2.81527
upperback 6.54786 -1.49886 4.73425
thorax -7.28853 -0.0107222 7.31966
lowerneck -10.0267 4.98505 2.2501
upperneck 12.0712 8.90352 -12.9106
head 6.01695 3.79149 -3.66909
rclavicle -1.55052e-014 -2.22639e-014
rhumerus -35.8699 -31.5497 -58.846
rradius 126.431
rwrist -32.6438
rhand 9.45804 -0.915269
rfingers 7.12502
rthumb 34.6121 -27.561
lclavicle -1.55052e-014 -2.22639e-014
lhumerus -44.9618 11.5427 76.0271
lradius 46.6966
lwrist 13.5988
lhand -14.6281 49.493
lfingers 7.12502
lthumb 11.5234 79.1562
rfemur -18.9922 6.50389 17.6732
rtibia 42.1675
rfoot -14.7574 -6.28089
rtoes 6.3131
lfemur -15.6859 -9.8047 -19.3409
ltibia 36.5001
lfoot -12.0066 -0.774469
ltoes -12.4412
247
root 0.503552 17.7961 7.44953 -184.578 4.81363 -181.01
lowerback 26.4599 -2.0478 -2.86954
upperback 6.71717 -1.39322 4.58161
thorax -6.94248 0.0297032 7.12147
lowerneck -10.0255 5.18916 2.42691
upperneck 12.0878 9.15616 -12.9133
head 6.04987 3.91854 -3.67461
rclavicle -4.53229e-014 5.88403e-014
rhumerus -33.6231 -30.2837 -61.0133
rradius 127.906
rwrist -29.7324
rhand 9.8358 -1.10399
rfingers 7.12502
rthumb 34.9706 -27.6669
lclavicle -4.53229e-014 5.88403e-014
lhumerus -44.4661 11.367 76.1204
lradius 46.6748
lwrist 13.3617
lhand -14.3686 49.8613
lfingers 7.12502
lthumb 11.7737 79.5104
rfemur -18.7669 6.18638 17.7374
rtibia 41.9142
rfoot -14.3951 -6.36921
rtoes 3.47664
lfemur -15.564 -10.0422 -19.2988
ltibia 36.332
lfoot -11.9635 -0.801882
ltoes -11.831
248
root 0.557629 17.8062 7.45086 -184.617 4.26893 -180.694
lowerback 26.8982 -1.93763 -2.83387
upperback 6.44926 -1.24385 4.71598
thorax -7.4799 0.117954 7.23561
lowerneck -9.70342 5.31565 2.50964
upperneck 12.3896 9.40265 -12.9767
head 6.11505 4.0492 -3.69132
rclavicle -2.70347e-014 -7.15625e-014
rhumerus -32.0574 -28.4818 -62.45
rradius 129.233
rwrist -26.5611
rhand 10.1655 -1.26228
rfingers 7.12502
rthumb 35.2833 -27.7517
lclavicle -2.70347e-014 -7.15625e-014
lhumerus -44.6403 11.1388 76.3322
lradius 46.8867
lwrist 13.2447
lhand -14.0103 50.3552
lfingers 7.12502
lthumb 12.1192 79.9842
rfemur -18.4908 5.97909 18.2838
rtibia 41.6878
rfoot -14.2473 -6.79913
rtoes 3.3757
lfemur -15.4877 -10.1975 -18.7885
ltibia 36.1601
lfoot -11.9012 -1.11359
ltoes -12.4007
